<svg width="40" height="40" viewBox="0 0 40 40" fill="none" xmlns="http://www.w3.org/2000/svg">
<g clip-path="url(#clip0_4_577)">
<path fill-rule="evenodd" clip-rule="evenodd" d="M22.3066 39.0454C26.5924 38.545 30.5839 36.6129 33.635 33.5618C36.6861 30.5108 38.6181 26.5193 39.1185 22.2335H31.9156C31.4613 24.612 30.302 26.7989 28.5883 28.5098C26.8746 30.2207 24.6859 31.3765 22.3066 31.8269V39.0454Z" fill="#F7936F"/>
<path fill-rule="evenodd" clip-rule="evenodd" d="M28.7048 2.87801L28.7502 2.84834C33.4109 0.170318 37.1795 -0.61718 38.9342 1.139C43.898 6.10131 29.9001 21.5366 25.7534 25.6834C23.2596 28.1844 20.6169 30.5324 17.8396 32.7143V39.0406C15.6068 38.7872 13.4373 38.1363 11.4336 37.1188L11.3883 37.1485C6.72757 39.8265 2.96058 40.614 1.2044 38.8672C-1.20176 36.461 1.6137 30.9222 2.9449 28.6364C1.93375 26.6302 1.28328 24.4618 1.02313 22.2304H8.24155C8.5572 23.9057 9.22492 25.4951 10.2005 26.8932C11.176 28.2914 12.4372 29.4665 13.9007 30.341C13.068 30.9457 12.2211 31.5206 11.343 32.0597C10.0571 32.8768 8.72595 33.6487 7.34788 34.3439C6.26937 33.3889 5.3047 32.3125 4.47301 31.1363C3.01994 33.9361 2.53559 35.9939 3.30743 36.761C6.62136 40.0422 21.527 26.3505 23.9785 23.8991C26.5884 21.2926 29.0297 18.5225 31.2875 15.6056C30.5435 13.7043 29.3282 12.0233 27.7558 10.721C26.1833 9.41856 24.3055 8.53751 22.2988 8.16063V0.942132C24.5321 1.1934 26.702 1.84437 28.7048 2.86394V2.87801ZM35.6655 8.85591C37.1185 6.05602 37.6029 3.99828 36.831 3.23113C36.0592 2.46397 34.0187 2.95927 31.2172 4.41234C32.9395 5.63456 34.4432 7.13839 35.6655 8.8606V8.85591Z" fill="#F16063"/>
<path fill-rule="evenodd" clip-rule="evenodd" d="M17.8428 0.956238C13.5569 1.45693 9.56541 3.38934 6.51436 6.44068C3.4633 9.49201 1.53124 13.4837 1.03094 17.7697H8.24944C8.69762 15.3909 9.85292 13.2026 11.5644 11.4908C13.276 9.77896 15.4641 8.62326 17.8428 8.1747V0.956238Z" fill="#F7936F"/>
</g>
<defs>
<clipPath id="clip0_4_577">
<rect width="39.7172" height="39.6" fill="white" transform="translate(0.271606 0.200012)"/>
</clipPath>
</defs>
</svg>
