<svg width="14" height="14" viewBox="0 0 14 14" fill="none" xmlns="http://www.w3.org/2000/svg">
<path fill-rule="evenodd" clip-rule="evenodd" d="M6.20279 0.928955C7.50441 0.928955 8.71398 1.33895 9.70709 2.03417C9.75286 2.05588 9.79271 2.08835 9.82324 2.1288C9.85376 2.16925 9.87406 2.21649 9.88241 2.26649C9.88303 2.26959 9.8836 2.2727 9.88413 2.27582C9.89157 2.32443 9.88762 2.37489 9.8724 2.42164C9.85718 2.4684 9.83122 2.51093 9.79659 2.54582L9.15471 3.44417C9.13261 3.48913 9.10009 3.52816 9.05985 3.558C9.01962 3.58784 8.97285 3.60763 8.92342 3.61571C8.92099 3.61621 8.91855 3.61668 8.91611 3.61712C8.91571 3.61716 8.91532 3.61719 8.91493 3.61722C8.86685 3.62464 8.81771 3.62079 8.77137 3.60597C8.72503 3.59116 8.68277 3.56579 8.6479 3.53185C7.95389 3.04865 7.11401 2.76382 6.20278 2.76382C3.83679 2.76382 1.92463 4.67742 1.92463 7.04533C1.92463 9.41323 3.83679 11.3268 6.20278 11.3268C8.42075 11.3268 10.2358 9.67967 10.458 7.52621L9.11165 7.9823C9.04893 8.01361 8.97755 8.02304 8.90885 8.00909C8.84016 7.99515 8.7781 7.95861 8.73254 7.90531C8.68711 7.85323 8.6601 7.78764 8.65568 7.71866C8.65126 7.64968 8.66968 7.58116 8.70809 7.5237L10.2143 4.38466C10.2328 4.34614 10.259 4.31179 10.2912 4.28372C10.3234 4.25565 10.3609 4.23443 10.4016 4.22137C10.4423 4.20832 10.4852 4.20369 10.5277 4.20778C10.5702 4.21186 10.6114 4.22458 10.6488 4.24514L13.7166 5.93058C13.7776 5.95352 13.83 5.99488 13.8665 6.04892C13.903 6.10296 13.9217 6.16702 13.9202 6.23222C13.9202 6.23447 13.9201 6.23672 13.9199 6.23897C13.9197 6.2457 13.9192 6.25242 13.9186 6.25911C13.9177 6.26764 13.9165 6.27614 13.9149 6.28457C13.9149 6.28509 13.9148 6.28562 13.9148 6.28614C13.9032 6.34854 13.8731 6.40597 13.8283 6.45089C13.7835 6.49582 13.7262 6.52614 13.6638 6.53785L12.3145 6.98842C12.3145 7.0062 12.3145 7.02261 12.3145 7.04589C12.3145 10.4203 9.57471 13.1623 6.20279 13.1623C2.83087 13.1623 0.0910645 10.4203 0.0910645 7.04589C0.0910645 3.67146 2.83086 0.928955 6.20279 0.928955Z" fill="black"/>
</svg>
